<svg width="265" height="43" viewBox="0 0 265 43" fill="none" xmlns="http://www.w3.org/2000/svg">
<rect width="264" height="43" fill="#1877F2"/>
<g clip-path="url(#clip0_306_90)">
<rect width="24.8544" height="36.8571" transform="translate(4.14246 3.07141)" fill="#1877F2"/>
<path d="M27.6425 21.1413C27.6425 14.79 22.4937 9.64129 16.1425 9.64129C9.79118 9.64129 4.64246 14.79 4.64246 21.1413C4.64246 26.8813 8.84784 31.6389 14.3456 32.5016V24.4655H11.4257V21.1413H14.3456V18.6077C14.3456 15.7255 16.0624 14.1335 18.6893 14.1335C19.9475 14.1335 21.2635 14.3581 21.2635 14.3581V17.1882H19.8134C18.3848 17.1882 17.9393 18.0746 17.9393 18.9841V21.1413H21.1288L20.6189 24.4655H17.9393V32.5016C23.4371 31.6389 27.6425 26.8813 27.6425 21.1413Z" fill="white"/>
</g>
<path d="M47.8438 24.3967H50.2852C50.207 25.3277 49.9466 26.1578 49.5039 26.887C49.0612 27.6096 48.4395 28.1793 47.6387 28.5959C46.8379 29.0126 45.8646 29.2209 44.7188 29.2209C43.8398 29.2209 43.0488 29.0647 42.3457 28.7522C41.6426 28.4332 41.0404 27.984 40.5391 27.4045C40.0378 26.8186 39.6536 26.1122 39.3867 25.2854C39.1263 24.4586 38.9961 23.5341 38.9961 22.512V21.3303C38.9961 20.3082 39.1296 19.3837 39.3965 18.5569C39.6699 17.7301 40.0605 17.0237 40.5684 16.4377C41.0762 15.8453 41.6849 15.3928 42.3945 15.0803C43.1107 14.7678 43.9147 14.6116 44.8066 14.6116C45.9395 14.6116 46.8965 14.8199 47.6777 15.2366C48.459 15.6532 49.0645 16.2294 49.4941 16.9651C49.9303 17.7008 50.1973 18.5439 50.2949 19.4944H47.8535C47.7884 18.8824 47.6452 18.3583 47.4238 17.9221C47.209 17.4859 46.89 17.1539 46.4668 16.926C46.0436 16.6917 45.4902 16.5745 44.8066 16.5745C44.2467 16.5745 43.7585 16.6786 43.3418 16.887C42.9251 17.0953 42.5768 17.4013 42.2969 17.8049C42.0169 18.2086 41.8053 18.7066 41.6621 19.2991C41.5254 19.885 41.457 20.5556 41.457 21.3108V22.512C41.457 23.2281 41.5189 23.8792 41.6426 24.4651C41.7728 25.0445 41.9681 25.5426 42.2285 25.9592C42.4954 26.3759 42.834 26.6982 43.2441 26.926C43.6543 27.1539 44.1458 27.2678 44.7188 27.2678C45.4154 27.2678 45.9785 27.1571 46.4082 26.9358C46.8444 26.7144 47.1732 26.3922 47.3945 25.969C47.6224 25.5393 47.7721 25.0152 47.8438 24.3967ZM51.8281 23.8596V23.635C51.8281 22.8733 51.9388 22.1669 52.1602 21.5159C52.3815 20.8583 52.7005 20.2887 53.1172 19.8069C53.5404 19.3186 54.0547 18.941 54.6602 18.6741C55.2721 18.4006 55.9622 18.2639 56.7305 18.2639C57.5052 18.2639 58.1953 18.4006 58.8008 18.6741C59.4128 18.941 59.9303 19.3186 60.3535 19.8069C60.7767 20.2887 61.099 20.8583 61.3203 21.5159C61.5417 22.1669 61.6523 22.8733 61.6523 23.635V23.8596C61.6523 24.6213 61.5417 25.3277 61.3203 25.9788C61.099 26.6298 60.7767 27.1995 60.3535 27.6877C59.9303 28.1695 59.416 28.5471 58.8105 28.8206C58.2051 29.0875 57.5182 29.2209 56.75 29.2209C55.9753 29.2209 55.2819 29.0875 54.6699 28.8206C54.0645 28.5471 53.5501 28.1695 53.127 27.6877C52.7038 27.1995 52.3815 26.6298 52.1602 25.9788C51.9388 25.3277 51.8281 24.6213 51.8281 23.8596ZM54.1816 23.635V23.8596C54.1816 24.3349 54.2305 24.7841 54.3281 25.2073C54.4258 25.6305 54.5788 26.0015 54.7871 26.3206C54.9954 26.6396 55.2624 26.8902 55.5879 27.0725C55.9134 27.2548 56.3008 27.3459 56.75 27.3459C57.1862 27.3459 57.5638 27.2548 57.8828 27.0725C58.2083 26.8902 58.4753 26.6396 58.6836 26.3206C58.8919 26.0015 59.0449 25.6305 59.1426 25.2073C59.2467 24.7841 59.2988 24.3349 59.2988 23.8596V23.635C59.2988 23.1663 59.2467 22.7236 59.1426 22.3069C59.0449 21.8837 58.8887 21.5094 58.6738 21.1838C58.4655 20.8583 58.1986 20.6044 57.873 20.4221C57.554 20.2333 57.1732 20.1389 56.7305 20.1389C56.2878 20.1389 55.9036 20.2333 55.5781 20.4221C55.2591 20.6044 54.9954 20.8583 54.7871 21.1838C54.5788 21.5094 54.4258 21.8837 54.3281 22.3069C54.2305 22.7236 54.1816 23.1663 54.1816 23.635ZM65.959 20.7151V29.0256H63.6055V18.4592H65.8223L65.959 20.7151ZM65.5391 23.3518L64.7773 23.342C64.7839 22.5933 64.888 21.9065 65.0898 21.2815C65.2982 20.6565 65.5846 20.1194 65.9492 19.6702C66.3203 19.2209 66.763 18.8759 67.2773 18.635C67.7917 18.3876 68.3646 18.2639 68.9961 18.2639C69.5039 18.2639 69.9629 18.3355 70.373 18.4788C70.7897 18.6155 71.1445 18.8401 71.4375 19.1526C71.737 19.4651 71.9648 19.872 72.1211 20.3733C72.2773 20.8681 72.3555 21.4768 72.3555 22.1995V29.0256H69.9922V22.1897C69.9922 21.6819 69.9173 21.2815 69.7676 20.9885C69.6243 20.689 69.4128 20.4775 69.1328 20.3538C68.8594 20.2236 68.5176 20.1584 68.1074 20.1584C67.7038 20.1584 67.3424 20.2431 67.0234 20.4124C66.7044 20.5816 66.4342 20.8127 66.2129 21.1057C65.998 21.3987 65.832 21.7372 65.7148 22.1213C65.5977 22.5055 65.5391 22.9156 65.5391 23.3518ZM79.6016 18.4592V20.178H73.6445V18.4592H79.6016ZM75.3633 15.8713H77.7168V26.1057C77.7168 26.4312 77.7624 26.6819 77.8535 26.8577C77.9512 27.0269 78.0846 27.1409 78.2539 27.1995C78.4232 27.2581 78.6217 27.2874 78.8496 27.2874C79.0124 27.2874 79.1686 27.2776 79.3184 27.2581C79.4681 27.2385 79.5885 27.219 79.6797 27.1995L79.6895 28.9963C79.4941 29.0549 79.2663 29.107 79.0059 29.1526C78.752 29.1982 78.459 29.2209 78.127 29.2209C77.5866 29.2209 77.1081 29.1265 76.6914 28.9377C76.2747 28.7424 75.9492 28.4267 75.7148 27.9905C75.4805 27.5543 75.3633 26.9749 75.3633 26.2522V15.8713ZM83.9375 18.4592V29.0256H81.5742V18.4592H83.9375ZM81.418 15.6858C81.418 15.3277 81.5352 15.0315 81.7695 14.7971C82.0104 14.5562 82.3424 14.4358 82.7656 14.4358C83.1823 14.4358 83.5111 14.5562 83.752 14.7971C83.9928 15.0315 84.1133 15.3277 84.1133 15.6858C84.1133 16.0374 83.9928 16.3303 83.752 16.5647C83.5111 16.7991 83.1823 16.9163 82.7656 16.9163C82.3424 16.9163 82.0104 16.7991 81.7695 16.5647C81.5352 16.3303 81.418 16.0374 81.418 15.6858ZM88.8496 20.7151V29.0256H86.4961V18.4592H88.7129L88.8496 20.7151ZM88.4297 23.3518L87.668 23.342C87.6745 22.5933 87.7786 21.9065 87.9805 21.2815C88.1888 20.6565 88.4753 20.1194 88.8398 19.6702C89.2109 19.2209 89.6536 18.8759 90.168 18.635C90.6823 18.3876 91.2552 18.2639 91.8867 18.2639C92.3945 18.2639 92.8535 18.3355 93.2637 18.4788C93.6803 18.6155 94.0352 18.8401 94.3281 19.1526C94.6276 19.4651 94.8555 19.872 95.0117 20.3733C95.168 20.8681 95.2461 21.4768 95.2461 22.1995V29.0256H92.8828V22.1897C92.8828 21.6819 92.8079 21.2815 92.6582 20.9885C92.515 20.689 92.3034 20.4775 92.0234 20.3538C91.75 20.2236 91.4082 20.1584 90.998 20.1584C90.5944 20.1584 90.2331 20.2431 89.9141 20.4124C89.5951 20.5816 89.3249 20.8127 89.1035 21.1057C88.8887 21.3987 88.7227 21.7372 88.6055 22.1213C88.4883 22.5055 88.4297 22.9156 88.4297 23.3518ZM104.006 26.5354V18.4592H106.369V29.0256H104.143L104.006 26.5354ZM104.338 24.3381L105.129 24.3186C105.129 25.0282 105.051 25.6825 104.895 26.2815C104.738 26.8739 104.497 27.3915 104.172 27.8342C103.846 28.2704 103.43 28.6122 102.922 28.8596C102.414 29.1005 101.805 29.2209 101.096 29.2209C100.581 29.2209 100.109 29.1461 99.6797 28.9963C99.25 28.8466 98.8789 28.6155 98.5664 28.303C98.2604 27.9905 98.0228 27.5836 97.8535 27.0823C97.6842 26.581 97.5996 25.982 97.5996 25.2854V18.4592H99.9531V25.3049C99.9531 25.689 99.9987 26.0113 100.09 26.2717C100.181 26.5256 100.305 26.7307 100.461 26.887C100.617 27.0432 100.799 27.1539 101.008 27.219C101.216 27.2841 101.438 27.3167 101.672 27.3167C102.342 27.3167 102.87 27.1864 103.254 26.926C103.645 26.6591 103.921 26.301 104.084 25.8518C104.253 25.4026 104.338 24.898 104.338 24.3381ZM113.439 29.2209C112.658 29.2209 111.952 29.094 111.32 28.8401C110.695 28.5797 110.161 28.2183 109.719 27.7561C109.283 27.2939 108.947 26.7502 108.713 26.1252C108.479 25.5002 108.361 24.8264 108.361 24.1038V23.7131C108.361 22.8863 108.482 22.1376 108.723 21.467C108.964 20.7965 109.299 20.2236 109.729 19.7483C110.158 19.2665 110.666 18.8987 111.252 18.6448C111.838 18.3909 112.473 18.2639 113.156 18.2639C113.911 18.2639 114.572 18.3909 115.139 18.6448C115.705 18.8987 116.174 19.2568 116.545 19.719C116.923 20.1747 117.202 20.7183 117.385 21.3499C117.574 21.9814 117.668 22.678 117.668 23.4397V24.4456H109.504V22.7561H115.344V22.5706C115.331 22.1474 115.246 21.7502 115.09 21.3792C114.94 21.0081 114.709 20.7086 114.396 20.4807C114.084 20.2528 113.667 20.1389 113.146 20.1389C112.756 20.1389 112.408 20.2236 112.102 20.3928C111.802 20.5556 111.551 20.7932 111.35 21.1057C111.148 21.4182 110.992 21.7958 110.881 22.2385C110.777 22.6747 110.725 23.1663 110.725 23.7131V24.1038C110.725 24.566 110.786 24.9957 110.91 25.3928C111.04 25.7834 111.229 26.1252 111.477 26.4182C111.724 26.7112 112.023 26.9423 112.375 27.1116C112.727 27.2743 113.127 27.3557 113.576 27.3557C114.143 27.3557 114.647 27.2418 115.09 27.0139C115.533 26.7861 115.917 26.4638 116.242 26.0471L117.482 27.2483C117.255 27.5803 116.958 27.8993 116.594 28.2053C116.229 28.5048 115.783 28.7489 115.256 28.9377C114.735 29.1265 114.13 29.2209 113.439 29.2209ZM127.355 26.6819L129.797 18.4592H131.301L130.891 20.9202L128.43 29.0256H127.082L127.355 26.6819ZM125.92 18.4592L127.824 26.7209L127.98 29.0256H126.477L123.615 18.4592H125.92ZM133.586 26.6233L135.432 18.4592H137.727L134.875 29.0256H133.371L133.586 26.6233ZM131.555 18.4592L133.967 26.5842L134.27 29.0256H132.922L130.432 20.9104L130.021 18.4592H131.555ZM141.848 18.4592V29.0256H139.484V18.4592H141.848ZM139.328 15.6858C139.328 15.3277 139.445 15.0315 139.68 14.7971C139.921 14.5562 140.253 14.4358 140.676 14.4358C141.092 14.4358 141.421 14.5562 141.662 14.7971C141.903 15.0315 142.023 15.3277 142.023 15.6858C142.023 16.0374 141.903 16.3303 141.662 16.5647C141.421 16.7991 141.092 16.9163 140.676 16.9163C140.253 16.9163 139.921 16.7991 139.68 16.5647C139.445 16.3303 139.328 16.0374 139.328 15.6858ZM149.27 18.4592V20.178H143.312V18.4592H149.27ZM145.031 15.8713H147.385V26.1057C147.385 26.4312 147.43 26.6819 147.521 26.8577C147.619 27.0269 147.753 27.1409 147.922 27.1995C148.091 27.2581 148.29 27.2874 148.518 27.2874C148.68 27.2874 148.837 27.2776 148.986 27.2581C149.136 27.2385 149.257 27.219 149.348 27.1995L149.357 28.9963C149.162 29.0549 148.934 29.107 148.674 29.1526C148.42 29.1982 148.127 29.2209 147.795 29.2209C147.255 29.2209 146.776 29.1265 146.359 28.9377C145.943 28.7424 145.617 28.4267 145.383 27.9905C145.148 27.5543 145.031 26.9749 145.031 26.2522V15.8713ZM153.41 14.0256V29.0256H151.066V14.0256H153.41ZM153 23.3518L152.238 23.342C152.245 22.6129 152.346 21.939 152.541 21.3206C152.743 20.7021 153.023 20.165 153.381 19.7092C153.745 19.247 154.182 18.8922 154.689 18.6448C155.197 18.3909 155.76 18.2639 156.379 18.2639C156.9 18.2639 157.368 18.3355 157.785 18.4788C158.208 18.622 158.573 18.8531 158.879 19.1721C159.185 19.4846 159.416 19.8948 159.572 20.4026C159.735 20.9039 159.816 21.5159 159.816 22.2385V29.0256H157.453V22.219C157.453 21.7112 157.378 21.3075 157.229 21.0081C157.085 20.7086 156.874 20.4937 156.594 20.3635C156.314 20.2268 155.972 20.1584 155.568 20.1584C155.145 20.1584 154.771 20.2431 154.445 20.4124C154.126 20.5816 153.859 20.8127 153.645 21.1057C153.43 21.3987 153.267 21.7372 153.156 22.1213C153.052 22.5055 153 22.9156 153 23.3518ZM169.865 14.8069V29.0256H167.414V14.8069H169.865ZM175.666 21.0276V22.9709H169.24V21.0276H175.666ZM176.477 14.8069V16.76H169.24V14.8069H176.477ZM183.82 26.9065V21.8674C183.82 21.4898 183.752 21.1643 183.615 20.8909C183.479 20.6174 183.27 20.4058 182.99 20.2561C182.717 20.1064 182.372 20.0315 181.955 20.0315C181.571 20.0315 181.239 20.0966 180.959 20.2268C180.679 20.357 180.461 20.5328 180.305 20.7542C180.148 20.9755 180.07 21.2262 180.07 21.5061H177.727C177.727 21.0894 177.827 20.6858 178.029 20.2952C178.231 19.9045 178.524 19.5562 178.908 19.2502C179.292 18.9443 179.751 18.7034 180.285 18.5276C180.819 18.3518 181.418 18.2639 182.082 18.2639C182.876 18.2639 183.579 18.3974 184.191 18.6643C184.81 18.9312 185.295 19.3349 185.646 19.8752C186.005 20.4091 186.184 21.0797 186.184 21.887V26.5842C186.184 27.066 186.216 27.4989 186.281 27.8831C186.353 28.2607 186.454 28.5894 186.584 28.8694V29.0256H184.172C184.061 28.7717 183.973 28.4495 183.908 28.0588C183.85 27.6617 183.82 27.2776 183.82 26.9065ZM184.162 22.5999L184.182 24.0549H182.492C182.056 24.0549 181.672 24.0972 181.34 24.1819C181.008 24.26 180.731 24.3772 180.51 24.5334C180.288 24.6897 180.122 24.8785 180.012 25.0999C179.901 25.3212 179.846 25.5719 179.846 25.8518C179.846 26.1318 179.911 26.3889 180.041 26.6233C180.171 26.8512 180.36 27.0302 180.607 27.1604C180.861 27.2906 181.167 27.3557 181.525 27.3557C182.007 27.3557 182.427 27.2581 182.785 27.0627C183.15 26.8609 183.436 26.6168 183.645 26.3303C183.853 26.0374 183.964 25.7607 183.977 25.5002L184.738 26.5452C184.66 26.8121 184.527 27.0986 184.338 27.4045C184.149 27.7105 183.902 28.0035 183.596 28.2834C183.296 28.5569 182.935 28.7815 182.512 28.9573C182.095 29.1331 181.613 29.2209 181.066 29.2209C180.376 29.2209 179.761 29.0842 179.221 28.8108C178.68 28.5308 178.257 28.1565 177.951 27.6877C177.645 27.2125 177.492 26.6754 177.492 26.0764C177.492 25.5165 177.596 25.0217 177.805 24.592C178.02 24.1558 178.332 23.7913 178.742 23.4983C179.159 23.2053 179.667 22.984 180.266 22.8342C180.865 22.678 181.548 22.5999 182.316 22.5999H184.162ZM192.961 27.3459C193.345 27.3459 193.69 27.2711 193.996 27.1213C194.309 26.9651 194.559 26.7502 194.748 26.4768C194.943 26.2034 195.051 25.8876 195.07 25.5295H197.287C197.274 26.2131 197.072 26.8349 196.682 27.3948C196.291 27.9547 195.773 28.4006 195.129 28.7327C194.484 29.0582 193.771 29.2209 192.99 29.2209C192.183 29.2209 191.48 29.0842 190.881 28.8108C190.282 28.5308 189.784 28.1467 189.387 27.6584C188.99 27.1702 188.69 26.607 188.488 25.969C188.293 25.331 188.195 24.6474 188.195 23.9182V23.5764C188.195 22.8472 188.293 22.1637 188.488 21.5256C188.69 20.8811 188.99 20.3147 189.387 19.8264C189.784 19.3381 190.282 18.9573 190.881 18.6838C191.48 18.4039 192.18 18.2639 192.98 18.2639C193.827 18.2639 194.569 18.4332 195.207 18.7717C195.845 19.1038 196.346 19.5693 196.711 20.1682C197.082 20.7607 197.274 21.4508 197.287 22.2385H195.07C195.051 21.8479 194.953 21.4963 194.777 21.1838C194.608 20.8648 194.367 20.6109 194.055 20.4221C193.749 20.2333 193.381 20.1389 192.951 20.1389C192.476 20.1389 192.082 20.2366 191.77 20.4319C191.457 20.6207 191.213 20.8811 191.037 21.2131C190.861 21.5387 190.734 21.9065 190.656 22.3167C190.585 22.7203 190.549 23.1402 190.549 23.5764V23.9182C190.549 24.3544 190.585 24.7776 190.656 25.1877C190.728 25.5979 190.852 25.9657 191.027 26.2913C191.21 26.6103 191.457 26.8674 191.77 27.0627C192.082 27.2515 192.479 27.3459 192.961 27.3459ZM203.752 29.2209C202.971 29.2209 202.264 29.094 201.633 28.8401C201.008 28.5797 200.474 28.2183 200.031 27.7561C199.595 27.2939 199.26 26.7502 199.025 26.1252C198.791 25.5002 198.674 24.8264 198.674 24.1038V23.7131C198.674 22.8863 198.794 22.1376 199.035 21.467C199.276 20.7965 199.611 20.2236 200.041 19.7483C200.471 19.2665 200.979 18.8987 201.564 18.6448C202.15 18.3909 202.785 18.2639 203.469 18.2639C204.224 18.2639 204.885 18.3909 205.451 18.6448C206.018 18.8987 206.486 19.2568 206.857 19.719C207.235 20.1747 207.515 20.7183 207.697 21.3499C207.886 21.9814 207.98 22.678 207.98 23.4397V24.4456H199.816V22.7561H205.656V22.5706C205.643 22.1474 205.559 21.7502 205.402 21.3792C205.253 21.0081 205.021 20.7086 204.709 20.4807C204.396 20.2528 203.98 20.1389 203.459 20.1389C203.068 20.1389 202.72 20.2236 202.414 20.3928C202.115 20.5556 201.864 20.7932 201.662 21.1057C201.46 21.4182 201.304 21.7958 201.193 22.2385C201.089 22.6747 201.037 23.1663 201.037 23.7131V24.1038C201.037 24.566 201.099 24.9957 201.223 25.3928C201.353 25.7834 201.542 26.1252 201.789 26.4182C202.036 26.7112 202.336 26.9423 202.688 27.1116C203.039 27.2743 203.439 27.3557 203.889 27.3557C204.455 27.3557 204.96 27.2418 205.402 27.0139C205.845 26.7861 206.229 26.4638 206.555 26.0471L207.795 27.2483C207.567 27.5803 207.271 27.8993 206.906 28.2053C206.542 28.5048 206.096 28.7489 205.568 28.9377C205.048 29.1265 204.442 29.2209 203.752 29.2209ZM209.826 14.0256H212.18V26.7698L211.955 29.0256H209.826V14.0256ZM219.074 23.6448V23.8499C219.074 24.6311 218.986 25.3505 218.811 26.0081C218.641 26.6591 218.381 27.2255 218.029 27.7073C217.684 28.189 217.255 28.5634 216.74 28.8303C216.232 29.0907 215.643 29.2209 214.973 29.2209C214.315 29.2209 213.742 29.0972 213.254 28.8499C212.766 28.6025 212.355 28.2509 212.023 27.7952C211.698 27.3394 211.434 26.7958 211.232 26.1643C211.031 25.5328 210.887 24.8362 210.803 24.0745V23.4202C210.887 22.6519 211.031 21.9553 211.232 21.3303C211.434 20.6988 211.698 20.1552 212.023 19.6995C212.355 19.2372 212.762 18.8824 213.244 18.635C213.732 18.3876 214.302 18.2639 214.953 18.2639C215.63 18.2639 216.226 18.3941 216.74 18.6545C217.261 18.915 217.694 19.2861 218.039 19.7678C218.384 20.2431 218.641 20.8095 218.811 21.467C218.986 22.1246 219.074 22.8505 219.074 23.6448ZM216.721 23.8499V23.6448C216.721 23.1695 216.682 22.7236 216.604 22.3069C216.525 21.8837 216.395 21.5126 216.213 21.1936C216.037 20.8746 215.796 20.6239 215.49 20.4417C215.191 20.2528 214.816 20.1584 214.367 20.1584C213.951 20.1584 213.592 20.2301 213.293 20.3733C212.993 20.5165 212.743 20.7118 212.541 20.9592C212.339 21.2066 212.18 21.4931 212.062 21.8186C211.952 22.1441 211.877 22.4957 211.838 22.8733V24.6409C211.896 25.1292 212.02 25.5784 212.209 25.9885C212.404 26.3922 212.678 26.7177 213.029 26.9651C213.381 27.206 213.833 27.3264 214.387 27.3264C214.823 27.3264 215.191 27.2385 215.49 27.0627C215.79 26.887 216.027 26.6428 216.203 26.3303C216.385 26.0113 216.516 25.6402 216.594 25.217C216.678 24.7939 216.721 24.3381 216.721 23.8499ZM220.617 23.8596V23.635C220.617 22.8733 220.728 22.1669 220.949 21.5159C221.171 20.8583 221.49 20.2887 221.906 19.8069C222.329 19.3186 222.844 18.941 223.449 18.6741C224.061 18.4006 224.751 18.2639 225.52 18.2639C226.294 18.2639 226.984 18.4006 227.59 18.6741C228.202 18.941 228.719 19.3186 229.143 19.8069C229.566 20.2887 229.888 20.8583 230.109 21.5159C230.331 22.1669 230.441 22.8733 230.441 23.635V23.8596C230.441 24.6213 230.331 25.3277 230.109 25.9788C229.888 26.6298 229.566 27.1995 229.143 27.6877C228.719 28.1695 228.205 28.5471 227.6 28.8206C226.994 29.0875 226.307 29.2209 225.539 29.2209C224.764 29.2209 224.071 29.0875 223.459 28.8206C222.854 28.5471 222.339 28.1695 221.916 27.6877C221.493 27.1995 221.171 26.6298 220.949 25.9788C220.728 25.3277 220.617 24.6213 220.617 23.8596ZM222.971 23.635V23.8596C222.971 24.3349 223.02 24.7841 223.117 25.2073C223.215 25.6305 223.368 26.0015 223.576 26.3206C223.785 26.6396 224.051 26.8902 224.377 27.0725C224.702 27.2548 225.09 27.3459 225.539 27.3459C225.975 27.3459 226.353 27.2548 226.672 27.0725C226.997 26.8902 227.264 26.6396 227.473 26.3206C227.681 26.0015 227.834 25.6305 227.932 25.2073C228.036 24.7841 228.088 24.3349 228.088 23.8596V23.635C228.088 23.1663 228.036 22.7236 227.932 22.3069C227.834 21.8837 227.678 21.5094 227.463 21.1838C227.255 20.8583 226.988 20.6044 226.662 20.4221C226.343 20.2333 225.962 20.1389 225.52 20.1389C225.077 20.1389 224.693 20.2333 224.367 20.4221C224.048 20.6044 223.785 20.8583 223.576 21.1838C223.368 21.5094 223.215 21.8837 223.117 22.3069C223.02 22.7236 222.971 23.1663 222.971 23.635ZM231.965 23.8596V23.635C231.965 22.8733 232.076 22.1669 232.297 21.5159C232.518 20.8583 232.837 20.2887 233.254 19.8069C233.677 19.3186 234.191 18.941 234.797 18.6741C235.409 18.4006 236.099 18.2639 236.867 18.2639C237.642 18.2639 238.332 18.4006 238.938 18.6741C239.549 18.941 240.067 19.3186 240.49 19.8069C240.913 20.2887 241.236 20.8583 241.457 21.5159C241.678 22.1669 241.789 22.8733 241.789 23.635V23.8596C241.789 24.6213 241.678 25.3277 241.457 25.9788C241.236 26.6298 240.913 27.1995 240.49 27.6877C240.067 28.1695 239.553 28.5471 238.947 28.8206C238.342 29.0875 237.655 29.2209 236.887 29.2209C236.112 29.2209 235.419 29.0875 234.807 28.8206C234.201 28.5471 233.687 28.1695 233.264 27.6877C232.84 27.1995 232.518 26.6298 232.297 25.9788C232.076 25.3277 231.965 24.6213 231.965 23.8596ZM234.318 23.635V23.8596C234.318 24.3349 234.367 24.7841 234.465 25.2073C234.562 25.6305 234.715 26.0015 234.924 26.3206C235.132 26.6396 235.399 26.8902 235.725 27.0725C236.05 27.2548 236.438 27.3459 236.887 27.3459C237.323 27.3459 237.701 27.2548 238.02 27.0725C238.345 26.8902 238.612 26.6396 238.82 26.3206C239.029 26.0015 239.182 25.6305 239.279 25.2073C239.383 24.7841 239.436 24.3349 239.436 23.8596V23.635C239.436 23.1663 239.383 22.7236 239.279 22.3069C239.182 21.8837 239.025 21.5094 238.811 21.1838C238.602 20.8583 238.335 20.6044 238.01 20.4221C237.691 20.2333 237.31 20.1389 236.867 20.1389C236.424 20.1389 236.04 20.2333 235.715 20.4221C235.396 20.6044 235.132 20.8583 234.924 21.1838C234.715 21.5094 234.562 21.8837 234.465 22.3069C234.367 22.7236 234.318 23.1663 234.318 23.635ZM246.135 14.0256V29.0256H243.771V14.0256H246.135ZM252.697 18.4592L248.098 23.5569L245.578 26.135L244.963 24.1428L246.867 21.7893L249.855 18.4592H252.697ZM250.363 29.0256L246.936 24.0647L248.42 22.4143L253.088 29.0256H250.363Z" fill="white"/>
<defs>
<clipPath id="clip0_306_90">
<rect width="24.8544" height="36.8571" fill="white" transform="translate(4.14246 3.07141)"/>
</clipPath>
</defs>
</svg>
