<svg width="331" height="43" viewBox="0 0 331 43" fill="none" xmlns="http://www.w3.org/2000/svg">
<rect width="305.079" height="43" fill="#1877F2"/>
<rect width="28.7219" height="36.8571" transform="translate(20 4)" fill="#1877F2"/>
<path d="M45.5 22.0699C45.5 15.7186 40.3513 10.5699 34 10.5699C27.6487 10.5699 22.5 15.7186 22.5 22.0699C22.5 27.8099 26.7054 32.5674 32.2031 33.4302V25.3941H29.2832V22.0699H32.2031V19.5363C32.2031 16.6541 33.92 15.0621 36.5468 15.0621C37.805 15.0621 39.1211 15.2867 39.1211 15.2867V18.1168H37.671C36.2424 18.1168 35.7969 19.0032 35.7969 19.9127V22.0699H38.9863L38.4765 25.3941H35.7969V33.4302C41.2946 32.5674 45.5 27.8099 45.5 22.0699Z" fill="white"/>
<path d="M77.8438 24.3711H80.2852C80.207 25.3021 79.9466 26.1322 79.5039 26.8613C79.0612 27.584 78.4395 28.1536 77.6387 28.5703C76.8379 28.987 75.8646 29.1953 74.7188 29.1953C73.8398 29.1953 73.0488 29.0391 72.3457 28.7266C71.6426 28.4076 71.0404 27.9583 70.5391 27.3789C70.0378 26.793 69.6536 26.0866 69.3867 25.2598C69.1263 24.4329 68.9961 23.5085 68.9961 22.4863V21.3047C68.9961 20.2826 69.1296 19.3581 69.3965 18.5312C69.6699 17.7044 70.0605 16.998 70.5684 16.4121C71.0762 15.8197 71.6849 15.3672 72.3945 15.0547C73.1107 14.7422 73.9147 14.5859 74.8066 14.5859C75.9395 14.5859 76.8965 14.7943 77.6777 15.2109C78.459 15.6276 79.0645 16.2038 79.4941 16.9395C79.9303 17.6751 80.1973 18.5182 80.2949 19.4688H77.8535C77.7884 18.8568 77.6452 18.3327 77.4238 17.8965C77.209 17.4603 76.89 17.1283 76.4668 16.9004C76.0436 16.666 75.4902 16.5488 74.8066 16.5488C74.2467 16.5488 73.7585 16.653 73.3418 16.8613C72.9251 17.0697 72.5768 17.3757 72.2969 17.7793C72.0169 18.1829 71.8053 18.681 71.6621 19.2734C71.5254 19.8594 71.457 20.5299 71.457 21.2852V22.4863C71.457 23.2025 71.5189 23.8535 71.6426 24.4395C71.7728 25.0189 71.9681 25.5169 72.2285 25.9336C72.4954 26.3503 72.834 26.6725 73.2441 26.9004C73.6543 27.1283 74.1458 27.2422 74.7188 27.2422C75.4154 27.2422 75.9785 27.1315 76.4082 26.9102C76.8444 26.6888 77.1732 26.3665 77.3945 25.9434C77.6224 25.5137 77.7721 24.9896 77.8438 24.3711ZM81.8281 23.834V23.6094C81.8281 22.8477 81.9388 22.1413 82.1602 21.4902C82.3815 20.8327 82.7005 20.263 83.1172 19.7812C83.5404 19.293 84.0547 18.9154 84.6602 18.6484C85.2721 18.375 85.9622 18.2383 86.7305 18.2383C87.5052 18.2383 88.1953 18.375 88.8008 18.6484C89.4128 18.9154 89.9303 19.293 90.3535 19.7812C90.7767 20.263 91.099 20.8327 91.3203 21.4902C91.5417 22.1413 91.6523 22.8477 91.6523 23.6094V23.834C91.6523 24.5957 91.5417 25.3021 91.3203 25.9531C91.099 26.6042 90.7767 27.1738 90.3535 27.6621C89.9303 28.1439 89.416 28.5215 88.8105 28.7949C88.2051 29.0618 87.5182 29.1953 86.75 29.1953C85.9753 29.1953 85.2819 29.0618 84.6699 28.7949C84.0645 28.5215 83.5501 28.1439 83.127 27.6621C82.7038 27.1738 82.3815 26.6042 82.1602 25.9531C81.9388 25.3021 81.8281 24.5957 81.8281 23.834ZM84.1816 23.6094V23.834C84.1816 24.3092 84.2305 24.7585 84.3281 25.1816C84.4258 25.6048 84.5788 25.9759 84.7871 26.2949C84.9954 26.6139 85.2624 26.8646 85.5879 27.0469C85.9134 27.2292 86.3008 27.3203 86.75 27.3203C87.1862 27.3203 87.5638 27.2292 87.8828 27.0469C88.2083 26.8646 88.4753 26.6139 88.6836 26.2949C88.8919 25.9759 89.0449 25.6048 89.1426 25.1816C89.2467 24.7585 89.2988 24.3092 89.2988 23.834V23.6094C89.2988 23.1406 89.2467 22.6979 89.1426 22.2812C89.0449 21.8581 88.8887 21.4837 88.6738 21.1582C88.4655 20.8327 88.1986 20.5788 87.873 20.3965C87.554 20.2077 87.1732 20.1133 86.7305 20.1133C86.2878 20.1133 85.9036 20.2077 85.5781 20.3965C85.2591 20.5788 84.9954 20.8327 84.7871 21.1582C84.5788 21.4837 84.4258 21.8581 84.3281 22.2812C84.2305 22.6979 84.1816 23.1406 84.1816 23.6094ZM95.959 20.6895V29H93.6055V18.4336H95.8223L95.959 20.6895ZM95.5391 23.3262L94.7773 23.3164C94.7839 22.5677 94.888 21.8809 95.0898 21.2559C95.2982 20.6309 95.5846 20.0938 95.9492 19.6445C96.3203 19.1953 96.763 18.8503 97.2773 18.6094C97.7917 18.362 98.3646 18.2383 98.9961 18.2383C99.5039 18.2383 99.9629 18.3099 100.373 18.4531C100.79 18.5898 101.145 18.8145 101.438 19.127C101.737 19.4395 101.965 19.8464 102.121 20.3477C102.277 20.8424 102.355 21.4512 102.355 22.1738V29H99.9922V22.1641C99.9922 21.6562 99.9173 21.2559 99.7676 20.9629C99.6243 20.6634 99.4128 20.4518 99.1328 20.3281C98.8594 20.1979 98.5176 20.1328 98.1074 20.1328C97.7038 20.1328 97.3424 20.2174 97.0234 20.3867C96.7044 20.556 96.4342 20.7871 96.2129 21.0801C95.998 21.373 95.832 21.7116 95.7148 22.0957C95.5977 22.4798 95.5391 22.89 95.5391 23.3262ZM109.602 18.4336V20.1523H103.645V18.4336H109.602ZM105.363 15.8457H107.717V26.0801C107.717 26.4056 107.762 26.6562 107.854 26.832C107.951 27.0013 108.085 27.1152 108.254 27.1738C108.423 27.2324 108.622 27.2617 108.85 27.2617C109.012 27.2617 109.169 27.252 109.318 27.2324C109.468 27.2129 109.589 27.1934 109.68 27.1738L109.689 28.9707C109.494 29.0293 109.266 29.0814 109.006 29.127C108.752 29.1725 108.459 29.1953 108.127 29.1953C107.587 29.1953 107.108 29.1009 106.691 28.9121C106.275 28.7168 105.949 28.401 105.715 27.9648C105.48 27.5286 105.363 26.9492 105.363 26.2266V15.8457ZM113.938 18.4336V29H111.574V18.4336H113.938ZM111.418 15.6602C111.418 15.3021 111.535 15.0059 111.77 14.7715C112.01 14.5306 112.342 14.4102 112.766 14.4102C113.182 14.4102 113.511 14.5306 113.752 14.7715C113.993 15.0059 114.113 15.3021 114.113 15.6602C114.113 16.0117 113.993 16.3047 113.752 16.5391C113.511 16.7734 113.182 16.8906 112.766 16.8906C112.342 16.8906 112.01 16.7734 111.77 16.5391C111.535 16.3047 111.418 16.0117 111.418 15.6602ZM118.85 20.6895V29H116.496V18.4336H118.713L118.85 20.6895ZM118.43 23.3262L117.668 23.3164C117.674 22.5677 117.779 21.8809 117.98 21.2559C118.189 20.6309 118.475 20.0938 118.84 19.6445C119.211 19.1953 119.654 18.8503 120.168 18.6094C120.682 18.362 121.255 18.2383 121.887 18.2383C122.395 18.2383 122.854 18.3099 123.264 18.4531C123.68 18.5898 124.035 18.8145 124.328 19.127C124.628 19.4395 124.855 19.8464 125.012 20.3477C125.168 20.8424 125.246 21.4512 125.246 22.1738V29H122.883V22.1641C122.883 21.6562 122.808 21.2559 122.658 20.9629C122.515 20.6634 122.303 20.4518 122.023 20.3281C121.75 20.1979 121.408 20.1328 120.998 20.1328C120.594 20.1328 120.233 20.2174 119.914 20.3867C119.595 20.556 119.325 20.7871 119.104 21.0801C118.889 21.373 118.723 21.7116 118.605 22.0957C118.488 22.4798 118.43 22.89 118.43 23.3262ZM134.006 26.5098V18.4336H136.369V29H134.143L134.006 26.5098ZM134.338 24.3125L135.129 24.293C135.129 25.0026 135.051 25.6569 134.895 26.2559C134.738 26.8483 134.497 27.3659 134.172 27.8086C133.846 28.2448 133.43 28.5866 132.922 28.834C132.414 29.0749 131.805 29.1953 131.096 29.1953C130.581 29.1953 130.109 29.1204 129.68 28.9707C129.25 28.821 128.879 28.5898 128.566 28.2773C128.26 27.9648 128.023 27.5579 127.854 27.0566C127.684 26.5553 127.6 25.9564 127.6 25.2598V18.4336H129.953V25.2793C129.953 25.6634 129.999 25.9857 130.09 26.2461C130.181 26.5 130.305 26.7051 130.461 26.8613C130.617 27.0176 130.799 27.1283 131.008 27.1934C131.216 27.2585 131.438 27.291 131.672 27.291C132.342 27.291 132.87 27.1608 133.254 26.9004C133.645 26.6335 133.921 26.2754 134.084 25.8262C134.253 25.377 134.338 24.8724 134.338 24.3125ZM143.439 29.1953C142.658 29.1953 141.952 29.0684 141.32 28.8145C140.695 28.554 140.161 28.1927 139.719 27.7305C139.283 27.2682 138.947 26.7246 138.713 26.0996C138.479 25.4746 138.361 24.8008 138.361 24.0781V23.6875C138.361 22.8607 138.482 22.112 138.723 21.4414C138.964 20.7708 139.299 20.1979 139.729 19.7227C140.158 19.2409 140.666 18.873 141.252 18.6191C141.838 18.3652 142.473 18.2383 143.156 18.2383C143.911 18.2383 144.572 18.3652 145.139 18.6191C145.705 18.873 146.174 19.2311 146.545 19.6934C146.923 20.1491 147.202 20.6927 147.385 21.3242C147.574 21.9557 147.668 22.6523 147.668 23.4141V24.4199H139.504V22.7305H145.344V22.5449C145.331 22.1217 145.246 21.7246 145.09 21.3535C144.94 20.9824 144.709 20.6829 144.396 20.4551C144.084 20.2272 143.667 20.1133 143.146 20.1133C142.756 20.1133 142.408 20.1979 142.102 20.3672C141.802 20.5299 141.551 20.7676 141.35 21.0801C141.148 21.3926 140.992 21.7702 140.881 22.2129C140.777 22.6491 140.725 23.1406 140.725 23.6875V24.0781C140.725 24.5404 140.786 24.9701 140.91 25.3672C141.04 25.7578 141.229 26.0996 141.477 26.3926C141.724 26.6855 142.023 26.9167 142.375 27.0859C142.727 27.2487 143.127 27.3301 143.576 27.3301C144.143 27.3301 144.647 27.2161 145.09 26.9883C145.533 26.7604 145.917 26.4382 146.242 26.0215L147.482 27.2227C147.255 27.5547 146.958 27.8737 146.594 28.1797C146.229 28.4792 145.783 28.7233 145.256 28.9121C144.735 29.1009 144.13 29.1953 143.439 29.1953ZM157.355 26.6562L159.797 18.4336H161.301L160.891 20.8945L158.43 29H157.082L157.355 26.6562ZM155.92 18.4336L157.824 26.6953L157.98 29H156.477L153.615 18.4336H155.92ZM163.586 26.5977L165.432 18.4336H167.727L164.875 29H163.371L163.586 26.5977ZM161.555 18.4336L163.967 26.5586L164.27 29H162.922L160.432 20.8848L160.021 18.4336H161.555ZM171.848 18.4336V29H169.484V18.4336H171.848ZM169.328 15.6602C169.328 15.3021 169.445 15.0059 169.68 14.7715C169.921 14.5306 170.253 14.4102 170.676 14.4102C171.092 14.4102 171.421 14.5306 171.662 14.7715C171.903 15.0059 172.023 15.3021 172.023 15.6602C172.023 16.0117 171.903 16.3047 171.662 16.5391C171.421 16.7734 171.092 16.8906 170.676 16.8906C170.253 16.8906 169.921 16.7734 169.68 16.5391C169.445 16.3047 169.328 16.0117 169.328 15.6602ZM179.27 18.4336V20.1523H173.312V18.4336H179.27ZM175.031 15.8457H177.385V26.0801C177.385 26.4056 177.43 26.6562 177.521 26.832C177.619 27.0013 177.753 27.1152 177.922 27.1738C178.091 27.2324 178.29 27.2617 178.518 27.2617C178.68 27.2617 178.837 27.252 178.986 27.2324C179.136 27.2129 179.257 27.1934 179.348 27.1738L179.357 28.9707C179.162 29.0293 178.934 29.0814 178.674 29.127C178.42 29.1725 178.127 29.1953 177.795 29.1953C177.255 29.1953 176.776 29.1009 176.359 28.9121C175.943 28.7168 175.617 28.401 175.383 27.9648C175.148 27.5286 175.031 26.9492 175.031 26.2266V15.8457ZM183.41 14V29H181.066V14H183.41ZM183 23.3262L182.238 23.3164C182.245 22.5872 182.346 21.9134 182.541 21.2949C182.743 20.6764 183.023 20.1393 183.381 19.6836C183.745 19.2214 184.182 18.8665 184.689 18.6191C185.197 18.3652 185.76 18.2383 186.379 18.2383C186.9 18.2383 187.368 18.3099 187.785 18.4531C188.208 18.5964 188.573 18.8275 188.879 19.1465C189.185 19.459 189.416 19.8691 189.572 20.377C189.735 20.8783 189.816 21.4902 189.816 22.2129V29H187.453V22.1934C187.453 21.6855 187.378 21.2819 187.229 20.9824C187.085 20.6829 186.874 20.4681 186.594 20.3379C186.314 20.2012 185.972 20.1328 185.568 20.1328C185.145 20.1328 184.771 20.2174 184.445 20.3867C184.126 20.556 183.859 20.7871 183.645 21.0801C183.43 21.373 183.267 21.7116 183.156 22.0957C183.052 22.4798 183 22.89 183 23.3262ZM199.865 14.7812V29H197.414V14.7812H199.865ZM205.666 21.002V22.9453H199.24V21.002H205.666ZM206.477 14.7812V16.7344H199.24V14.7812H206.477ZM213.82 26.8809V21.8418C213.82 21.4642 213.752 21.1387 213.615 20.8652C213.479 20.5918 213.27 20.3802 212.99 20.2305C212.717 20.0807 212.372 20.0059 211.955 20.0059C211.571 20.0059 211.239 20.071 210.959 20.2012C210.679 20.3314 210.461 20.5072 210.305 20.7285C210.148 20.9499 210.07 21.2005 210.07 21.4805H207.727C207.727 21.0638 207.827 20.6602 208.029 20.2695C208.231 19.8789 208.524 19.5306 208.908 19.2246C209.292 18.9186 209.751 18.6777 210.285 18.502C210.819 18.3262 211.418 18.2383 212.082 18.2383C212.876 18.2383 213.579 18.3717 214.191 18.6387C214.81 18.9056 215.295 19.3092 215.646 19.8496C216.005 20.3835 216.184 21.054 216.184 21.8613V26.5586C216.184 27.0404 216.216 27.4733 216.281 27.8574C216.353 28.235 216.454 28.5638 216.584 28.8438V29H214.172C214.061 28.7461 213.973 28.4238 213.908 28.0332C213.85 27.6361 213.82 27.252 213.82 26.8809ZM214.162 22.5742L214.182 24.0293H212.492C212.056 24.0293 211.672 24.0716 211.34 24.1562C211.008 24.2344 210.731 24.3516 210.51 24.5078C210.288 24.6641 210.122 24.8529 210.012 25.0742C209.901 25.2956 209.846 25.5462 209.846 25.8262C209.846 26.1061 209.911 26.3633 210.041 26.5977C210.171 26.8255 210.36 27.0046 210.607 27.1348C210.861 27.265 211.167 27.3301 211.525 27.3301C212.007 27.3301 212.427 27.2324 212.785 27.0371C213.15 26.8353 213.436 26.5911 213.645 26.3047C213.853 26.0117 213.964 25.735 213.977 25.4746L214.738 26.5195C214.66 26.7865 214.527 27.0729 214.338 27.3789C214.149 27.6849 213.902 27.9779 213.596 28.2578C213.296 28.5312 212.935 28.7559 212.512 28.9316C212.095 29.1074 211.613 29.1953 211.066 29.1953C210.376 29.1953 209.761 29.0586 209.221 28.7852C208.68 28.5052 208.257 28.1309 207.951 27.6621C207.645 27.1868 207.492 26.6497 207.492 26.0508C207.492 25.4909 207.596 24.9961 207.805 24.5664C208.02 24.1302 208.332 23.7656 208.742 23.4727C209.159 23.1797 209.667 22.9583 210.266 22.8086C210.865 22.6523 211.548 22.5742 212.316 22.5742H214.162ZM222.961 27.3203C223.345 27.3203 223.69 27.2454 223.996 27.0957C224.309 26.9395 224.559 26.7246 224.748 26.4512C224.943 26.1777 225.051 25.862 225.07 25.5039H227.287C227.274 26.1875 227.072 26.8092 226.682 27.3691C226.291 27.929 225.773 28.375 225.129 28.707C224.484 29.0326 223.771 29.1953 222.99 29.1953C222.183 29.1953 221.48 29.0586 220.881 28.7852C220.282 28.5052 219.784 28.1211 219.387 27.6328C218.99 27.1445 218.69 26.5814 218.488 25.9434C218.293 25.3053 218.195 24.6217 218.195 23.8926V23.5508C218.195 22.8216 218.293 22.138 218.488 21.5C218.69 20.8555 218.99 20.2891 219.387 19.8008C219.784 19.3125 220.282 18.9316 220.881 18.6582C221.48 18.3783 222.18 18.2383 222.98 18.2383C223.827 18.2383 224.569 18.4076 225.207 18.7461C225.845 19.0781 226.346 19.5436 226.711 20.1426C227.082 20.735 227.274 21.4251 227.287 22.2129H225.07C225.051 21.8223 224.953 21.4707 224.777 21.1582C224.608 20.8392 224.367 20.5853 224.055 20.3965C223.749 20.2077 223.381 20.1133 222.951 20.1133C222.476 20.1133 222.082 20.2109 221.77 20.4062C221.457 20.5951 221.213 20.8555 221.037 21.1875C220.861 21.513 220.734 21.8809 220.656 22.291C220.585 22.6947 220.549 23.1146 220.549 23.5508V23.8926C220.549 24.3288 220.585 24.752 220.656 25.1621C220.728 25.5723 220.852 25.9401 221.027 26.2656C221.21 26.5846 221.457 26.8418 221.77 27.0371C222.082 27.2259 222.479 27.3203 222.961 27.3203ZM233.752 29.1953C232.971 29.1953 232.264 29.0684 231.633 28.8145C231.008 28.554 230.474 28.1927 230.031 27.7305C229.595 27.2682 229.26 26.7246 229.025 26.0996C228.791 25.4746 228.674 24.8008 228.674 24.0781V23.6875C228.674 22.8607 228.794 22.112 229.035 21.4414C229.276 20.7708 229.611 20.1979 230.041 19.7227C230.471 19.2409 230.979 18.873 231.564 18.6191C232.15 18.3652 232.785 18.2383 233.469 18.2383C234.224 18.2383 234.885 18.3652 235.451 18.6191C236.018 18.873 236.486 19.2311 236.857 19.6934C237.235 20.1491 237.515 20.6927 237.697 21.3242C237.886 21.9557 237.98 22.6523 237.98 23.4141V24.4199H229.816V22.7305H235.656V22.5449C235.643 22.1217 235.559 21.7246 235.402 21.3535C235.253 20.9824 235.021 20.6829 234.709 20.4551C234.396 20.2272 233.98 20.1133 233.459 20.1133C233.068 20.1133 232.72 20.1979 232.414 20.3672C232.115 20.5299 231.864 20.7676 231.662 21.0801C231.46 21.3926 231.304 21.7702 231.193 22.2129C231.089 22.6491 231.037 23.1406 231.037 23.6875V24.0781C231.037 24.5404 231.099 24.9701 231.223 25.3672C231.353 25.7578 231.542 26.0996 231.789 26.3926C232.036 26.6855 232.336 26.9167 232.688 27.0859C233.039 27.2487 233.439 27.3301 233.889 27.3301C234.455 27.3301 234.96 27.2161 235.402 26.9883C235.845 26.7604 236.229 26.4382 236.555 26.0215L237.795 27.2227C237.567 27.5547 237.271 27.8737 236.906 28.1797C236.542 28.4792 236.096 28.7233 235.568 28.9121C235.048 29.1009 234.442 29.1953 233.752 29.1953ZM239.826 14H242.18V26.7441L241.955 29H239.826V14ZM249.074 23.6191V23.8242C249.074 24.6055 248.986 25.3249 248.811 25.9824C248.641 26.6335 248.381 27.1999 248.029 27.6816C247.684 28.1634 247.255 28.5378 246.74 28.8047C246.232 29.0651 245.643 29.1953 244.973 29.1953C244.315 29.1953 243.742 29.0716 243.254 28.8242C242.766 28.5768 242.355 28.2253 242.023 27.7695C241.698 27.3138 241.434 26.7702 241.232 26.1387C241.031 25.5072 240.887 24.8105 240.803 24.0488V23.3945C240.887 22.6263 241.031 21.9297 241.232 21.3047C241.434 20.6732 241.698 20.1296 242.023 19.6738C242.355 19.2116 242.762 18.8568 243.244 18.6094C243.732 18.362 244.302 18.2383 244.953 18.2383C245.63 18.2383 246.226 18.3685 246.74 18.6289C247.261 18.8893 247.694 19.2604 248.039 19.7422C248.384 20.2174 248.641 20.7839 248.811 21.4414C248.986 22.099 249.074 22.8249 249.074 23.6191ZM246.721 23.8242V23.6191C246.721 23.1439 246.682 22.6979 246.604 22.2812C246.525 21.8581 246.395 21.487 246.213 21.168C246.037 20.849 245.796 20.5983 245.49 20.416C245.191 20.2272 244.816 20.1328 244.367 20.1328C243.951 20.1328 243.592 20.2044 243.293 20.3477C242.993 20.4909 242.743 20.6862 242.541 20.9336C242.339 21.181 242.18 21.4674 242.062 21.793C241.952 22.1185 241.877 22.4701 241.838 22.8477V24.6152C241.896 25.1035 242.02 25.5527 242.209 25.9629C242.404 26.3665 242.678 26.6921 243.029 26.9395C243.381 27.1803 243.833 27.3008 244.387 27.3008C244.823 27.3008 245.191 27.2129 245.49 27.0371C245.79 26.8613 246.027 26.6172 246.203 26.3047C246.385 25.9857 246.516 25.6146 246.594 25.1914C246.678 24.7682 246.721 24.3125 246.721 23.8242ZM250.617 23.834V23.6094C250.617 22.8477 250.728 22.1413 250.949 21.4902C251.171 20.8327 251.49 20.263 251.906 19.7812C252.329 19.293 252.844 18.9154 253.449 18.6484C254.061 18.375 254.751 18.2383 255.52 18.2383C256.294 18.2383 256.984 18.375 257.59 18.6484C258.202 18.9154 258.719 19.293 259.143 19.7812C259.566 20.263 259.888 20.8327 260.109 21.4902C260.331 22.1413 260.441 22.8477 260.441 23.6094V23.834C260.441 24.5957 260.331 25.3021 260.109 25.9531C259.888 26.6042 259.566 27.1738 259.143 27.6621C258.719 28.1439 258.205 28.5215 257.6 28.7949C256.994 29.0618 256.307 29.1953 255.539 29.1953C254.764 29.1953 254.071 29.0618 253.459 28.7949C252.854 28.5215 252.339 28.1439 251.916 27.6621C251.493 27.1738 251.171 26.6042 250.949 25.9531C250.728 25.3021 250.617 24.5957 250.617 23.834ZM252.971 23.6094V23.834C252.971 24.3092 253.02 24.7585 253.117 25.1816C253.215 25.6048 253.368 25.9759 253.576 26.2949C253.785 26.6139 254.051 26.8646 254.377 27.0469C254.702 27.2292 255.09 27.3203 255.539 27.3203C255.975 27.3203 256.353 27.2292 256.672 27.0469C256.997 26.8646 257.264 26.6139 257.473 26.2949C257.681 25.9759 257.834 25.6048 257.932 25.1816C258.036 24.7585 258.088 24.3092 258.088 23.834V23.6094C258.088 23.1406 258.036 22.6979 257.932 22.2812C257.834 21.8581 257.678 21.4837 257.463 21.1582C257.255 20.8327 256.988 20.5788 256.662 20.3965C256.343 20.2077 255.962 20.1133 255.52 20.1133C255.077 20.1133 254.693 20.2077 254.367 20.3965C254.048 20.5788 253.785 20.8327 253.576 21.1582C253.368 21.4837 253.215 21.8581 253.117 22.2812C253.02 22.6979 252.971 23.1406 252.971 23.6094ZM261.965 23.834V23.6094C261.965 22.8477 262.076 22.1413 262.297 21.4902C262.518 20.8327 262.837 20.263 263.254 19.7812C263.677 19.293 264.191 18.9154 264.797 18.6484C265.409 18.375 266.099 18.2383 266.867 18.2383C267.642 18.2383 268.332 18.375 268.938 18.6484C269.549 18.9154 270.067 19.293 270.49 19.7812C270.913 20.263 271.236 20.8327 271.457 21.4902C271.678 22.1413 271.789 22.8477 271.789 23.6094V23.834C271.789 24.5957 271.678 25.3021 271.457 25.9531C271.236 26.6042 270.913 27.1738 270.49 27.6621C270.067 28.1439 269.553 28.5215 268.947 28.7949C268.342 29.0618 267.655 29.1953 266.887 29.1953C266.112 29.1953 265.419 29.0618 264.807 28.7949C264.201 28.5215 263.687 28.1439 263.264 27.6621C262.84 27.1738 262.518 26.6042 262.297 25.9531C262.076 25.3021 261.965 24.5957 261.965 23.834ZM264.318 23.6094V23.834C264.318 24.3092 264.367 24.7585 264.465 25.1816C264.562 25.6048 264.715 25.9759 264.924 26.2949C265.132 26.6139 265.399 26.8646 265.725 27.0469C266.05 27.2292 266.438 27.3203 266.887 27.3203C267.323 27.3203 267.701 27.2292 268.02 27.0469C268.345 26.8646 268.612 26.6139 268.82 26.2949C269.029 25.9759 269.182 25.6048 269.279 25.1816C269.383 24.7585 269.436 24.3092 269.436 23.834V23.6094C269.436 23.1406 269.383 22.6979 269.279 22.2812C269.182 21.8581 269.025 21.4837 268.811 21.1582C268.602 20.8327 268.335 20.5788 268.01 20.3965C267.691 20.2077 267.31 20.1133 266.867 20.1133C266.424 20.1133 266.04 20.2077 265.715 20.3965C265.396 20.5788 265.132 20.8327 264.924 21.1582C264.715 21.4837 264.562 21.8581 264.465 22.2812C264.367 22.6979 264.318 23.1406 264.318 23.6094ZM276.135 14V29H273.771V14H276.135ZM282.697 18.4336L278.098 23.5312L275.578 26.1094L274.963 24.1172L276.867 21.7637L279.855 18.4336H282.697ZM280.363 29L276.936 24.0391L278.42 22.3887L283.088 29H280.363Z" fill="white"/>
</svg>
