<svg width="335" height="51" viewBox="0 0 335 51" fill="none" xmlns="http://www.w3.org/2000/svg">
<g filter="url(#filter0_d_306_90)">
<rect x="4" width="305.079" height="43" fill="white"/>
<path d="M81.8438 24.3711H84.2852C84.207 25.3021 83.9466 26.1322 83.5039 26.8613C83.0612 27.584 82.4395 28.1536 81.6387 28.5703C80.8379 28.987 79.8646 29.1953 78.7188 29.1953C77.8398 29.1953 77.0488 29.0391 76.3457 28.7266C75.6426 28.4076 75.0404 27.9583 74.5391 27.3789C74.0378 26.793 73.6536 26.0866 73.3867 25.2598C73.1263 24.4329 72.9961 23.5085 72.9961 22.4863V21.3047C72.9961 20.2826 73.1296 19.3581 73.3965 18.5312C73.6699 17.7044 74.0605 16.998 74.5684 16.4121C75.0762 15.8197 75.6849 15.3672 76.3945 15.0547C77.1107 14.7422 77.9147 14.5859 78.8066 14.5859C79.9395 14.5859 80.8965 14.7943 81.6777 15.2109C82.459 15.6276 83.0645 16.2038 83.4941 16.9395C83.9303 17.6751 84.1973 18.5182 84.2949 19.4688H81.8535C81.7884 18.8568 81.6452 18.3327 81.4238 17.8965C81.209 17.4603 80.89 17.1283 80.4668 16.9004C80.0436 16.666 79.4902 16.5488 78.8066 16.5488C78.2467 16.5488 77.7585 16.653 77.3418 16.8613C76.9251 17.0697 76.5768 17.3757 76.2969 17.7793C76.0169 18.1829 75.8053 18.681 75.6621 19.2734C75.5254 19.8594 75.457 20.5299 75.457 21.2852V22.4863C75.457 23.2025 75.5189 23.8535 75.6426 24.4395C75.7728 25.0189 75.9681 25.5169 76.2285 25.9336C76.4954 26.3503 76.834 26.6725 77.2441 26.9004C77.6543 27.1283 78.1458 27.2422 78.7188 27.2422C79.4154 27.2422 79.9785 27.1315 80.4082 26.9102C80.8444 26.6888 81.1732 26.3665 81.3945 25.9434C81.6224 25.5137 81.7721 24.9896 81.8438 24.3711ZM85.8281 23.834V23.6094C85.8281 22.8477 85.9388 22.1413 86.1602 21.4902C86.3815 20.8327 86.7005 20.263 87.1172 19.7812C87.5404 19.293 88.0547 18.9154 88.6602 18.6484C89.2721 18.375 89.9622 18.2383 90.7305 18.2383C91.5052 18.2383 92.1953 18.375 92.8008 18.6484C93.4128 18.9154 93.9303 19.293 94.3535 19.7812C94.7767 20.263 95.099 20.8327 95.3203 21.4902C95.5417 22.1413 95.6523 22.8477 95.6523 23.6094V23.834C95.6523 24.5957 95.5417 25.3021 95.3203 25.9531C95.099 26.6042 94.7767 27.1738 94.3535 27.6621C93.9303 28.1439 93.416 28.5215 92.8105 28.7949C92.2051 29.0618 91.5182 29.1953 90.75 29.1953C89.9753 29.1953 89.2819 29.0618 88.6699 28.7949C88.0645 28.5215 87.5501 28.1439 87.127 27.6621C86.7038 27.1738 86.3815 26.6042 86.1602 25.9531C85.9388 25.3021 85.8281 24.5957 85.8281 23.834ZM88.1816 23.6094V23.834C88.1816 24.3092 88.2305 24.7585 88.3281 25.1816C88.4258 25.6048 88.5788 25.9759 88.7871 26.2949C88.9954 26.6139 89.2624 26.8646 89.5879 27.0469C89.9134 27.2292 90.3008 27.3203 90.75 27.3203C91.1862 27.3203 91.5638 27.2292 91.8828 27.0469C92.2083 26.8646 92.4753 26.6139 92.6836 26.2949C92.8919 25.9759 93.0449 25.6048 93.1426 25.1816C93.2467 24.7585 93.2988 24.3092 93.2988 23.834V23.6094C93.2988 23.1406 93.2467 22.6979 93.1426 22.2812C93.0449 21.8581 92.8887 21.4837 92.6738 21.1582C92.4655 20.8327 92.1986 20.5788 91.873 20.3965C91.554 20.2077 91.1732 20.1133 90.7305 20.1133C90.2878 20.1133 89.9036 20.2077 89.5781 20.3965C89.2591 20.5788 88.9954 20.8327 88.7871 21.1582C88.5788 21.4837 88.4258 21.8581 88.3281 22.2812C88.2305 22.6979 88.1816 23.1406 88.1816 23.6094ZM99.959 20.6895V29H97.6055V18.4336H99.8223L99.959 20.6895ZM99.5391 23.3262L98.7773 23.3164C98.7839 22.5677 98.888 21.8809 99.0898 21.2559C99.2982 20.6309 99.5846 20.0938 99.9492 19.6445C100.32 19.1953 100.763 18.8503 101.277 18.6094C101.792 18.362 102.365 18.2383 102.996 18.2383C103.504 18.2383 103.963 18.3099 104.373 18.4531C104.79 18.5898 105.145 18.8145 105.438 19.127C105.737 19.4395 105.965 19.8464 106.121 20.3477C106.277 20.8424 106.355 21.4512 106.355 22.1738V29H103.992V22.1641C103.992 21.6562 103.917 21.2559 103.768 20.9629C103.624 20.6634 103.413 20.4518 103.133 20.3281C102.859 20.1979 102.518 20.1328 102.107 20.1328C101.704 20.1328 101.342 20.2174 101.023 20.3867C100.704 20.556 100.434 20.7871 100.213 21.0801C99.998 21.373 99.832 21.7116 99.7148 22.0957C99.5977 22.4798 99.5391 22.89 99.5391 23.3262ZM113.602 18.4336V20.1523H107.645V18.4336H113.602ZM109.363 15.8457H111.717V26.0801C111.717 26.4056 111.762 26.6562 111.854 26.832C111.951 27.0013 112.085 27.1152 112.254 27.1738C112.423 27.2324 112.622 27.2617 112.85 27.2617C113.012 27.2617 113.169 27.252 113.318 27.2324C113.468 27.2129 113.589 27.1934 113.68 27.1738L113.689 28.9707C113.494 29.0293 113.266 29.0814 113.006 29.127C112.752 29.1725 112.459 29.1953 112.127 29.1953C111.587 29.1953 111.108 29.1009 110.691 28.9121C110.275 28.7168 109.949 28.401 109.715 27.9648C109.48 27.5286 109.363 26.9492 109.363 26.2266V15.8457ZM117.938 18.4336V29H115.574V18.4336H117.938ZM115.418 15.6602C115.418 15.3021 115.535 15.0059 115.77 14.7715C116.01 14.5306 116.342 14.4102 116.766 14.4102C117.182 14.4102 117.511 14.5306 117.752 14.7715C117.993 15.0059 118.113 15.3021 118.113 15.6602C118.113 16.0117 117.993 16.3047 117.752 16.5391C117.511 16.7734 117.182 16.8906 116.766 16.8906C116.342 16.8906 116.01 16.7734 115.77 16.5391C115.535 16.3047 115.418 16.0117 115.418 15.6602ZM122.85 20.6895V29H120.496V18.4336H122.713L122.85 20.6895ZM122.43 23.3262L121.668 23.3164C121.674 22.5677 121.779 21.8809 121.98 21.2559C122.189 20.6309 122.475 20.0938 122.84 19.6445C123.211 19.1953 123.654 18.8503 124.168 18.6094C124.682 18.362 125.255 18.2383 125.887 18.2383C126.395 18.2383 126.854 18.3099 127.264 18.4531C127.68 18.5898 128.035 18.8145 128.328 19.127C128.628 19.4395 128.855 19.8464 129.012 20.3477C129.168 20.8424 129.246 21.4512 129.246 22.1738V29H126.883V22.1641C126.883 21.6562 126.808 21.2559 126.658 20.9629C126.515 20.6634 126.303 20.4518 126.023 20.3281C125.75 20.1979 125.408 20.1328 124.998 20.1328C124.594 20.1328 124.233 20.2174 123.914 20.3867C123.595 20.556 123.325 20.7871 123.104 21.0801C122.889 21.373 122.723 21.7116 122.605 22.0957C122.488 22.4798 122.43 22.89 122.43 23.3262ZM138.006 26.5098V18.4336H140.369V29H138.143L138.006 26.5098ZM138.338 24.3125L139.129 24.293C139.129 25.0026 139.051 25.6569 138.895 26.2559C138.738 26.8483 138.497 27.3659 138.172 27.8086C137.846 28.2448 137.43 28.5866 136.922 28.834C136.414 29.0749 135.805 29.1953 135.096 29.1953C134.581 29.1953 134.109 29.1204 133.68 28.9707C133.25 28.821 132.879 28.5898 132.566 28.2773C132.26 27.9648 132.023 27.5579 131.854 27.0566C131.684 26.5553 131.6 25.9564 131.6 25.2598V18.4336H133.953V25.2793C133.953 25.6634 133.999 25.9857 134.09 26.2461C134.181 26.5 134.305 26.7051 134.461 26.8613C134.617 27.0176 134.799 27.1283 135.008 27.1934C135.216 27.2585 135.438 27.291 135.672 27.291C136.342 27.291 136.87 27.1608 137.254 26.9004C137.645 26.6335 137.921 26.2754 138.084 25.8262C138.253 25.377 138.338 24.8724 138.338 24.3125ZM147.439 29.1953C146.658 29.1953 145.952 29.0684 145.32 28.8145C144.695 28.554 144.161 28.1927 143.719 27.7305C143.283 27.2682 142.947 26.7246 142.713 26.0996C142.479 25.4746 142.361 24.8008 142.361 24.0781V23.6875C142.361 22.8607 142.482 22.112 142.723 21.4414C142.964 20.7708 143.299 20.1979 143.729 19.7227C144.158 19.2409 144.666 18.873 145.252 18.6191C145.838 18.3652 146.473 18.2383 147.156 18.2383C147.911 18.2383 148.572 18.3652 149.139 18.6191C149.705 18.873 150.174 19.2311 150.545 19.6934C150.923 20.1491 151.202 20.6927 151.385 21.3242C151.574 21.9557 151.668 22.6523 151.668 23.4141V24.4199H143.504V22.7305H149.344V22.5449C149.331 22.1217 149.246 21.7246 149.09 21.3535C148.94 20.9824 148.709 20.6829 148.396 20.4551C148.084 20.2272 147.667 20.1133 147.146 20.1133C146.756 20.1133 146.408 20.1979 146.102 20.3672C145.802 20.5299 145.551 20.7676 145.35 21.0801C145.148 21.3926 144.992 21.7702 144.881 22.2129C144.777 22.6491 144.725 23.1406 144.725 23.6875V24.0781C144.725 24.5404 144.786 24.9701 144.91 25.3672C145.04 25.7578 145.229 26.0996 145.477 26.3926C145.724 26.6855 146.023 26.9167 146.375 27.0859C146.727 27.2487 147.127 27.3301 147.576 27.3301C148.143 27.3301 148.647 27.2161 149.09 26.9883C149.533 26.7604 149.917 26.4382 150.242 26.0215L151.482 27.2227C151.255 27.5547 150.958 27.8737 150.594 28.1797C150.229 28.4792 149.783 28.7233 149.256 28.9121C148.735 29.1009 148.13 29.1953 147.439 29.1953ZM161.355 26.6562L163.797 18.4336H165.301L164.891 20.8945L162.43 29H161.082L161.355 26.6562ZM159.92 18.4336L161.824 26.6953L161.98 29H160.477L157.615 18.4336H159.92ZM167.586 26.5977L169.432 18.4336H171.727L168.875 29H167.371L167.586 26.5977ZM165.555 18.4336L167.967 26.5586L168.27 29H166.922L164.432 20.8848L164.021 18.4336H165.555ZM175.848 18.4336V29H173.484V18.4336H175.848ZM173.328 15.6602C173.328 15.3021 173.445 15.0059 173.68 14.7715C173.921 14.5306 174.253 14.4102 174.676 14.4102C175.092 14.4102 175.421 14.5306 175.662 14.7715C175.903 15.0059 176.023 15.3021 176.023 15.6602C176.023 16.0117 175.903 16.3047 175.662 16.5391C175.421 16.7734 175.092 16.8906 174.676 16.8906C174.253 16.8906 173.921 16.7734 173.68 16.5391C173.445 16.3047 173.328 16.0117 173.328 15.6602ZM183.27 18.4336V20.1523H177.312V18.4336H183.27ZM179.031 15.8457H181.385V26.0801C181.385 26.4056 181.43 26.6562 181.521 26.832C181.619 27.0013 181.753 27.1152 181.922 27.1738C182.091 27.2324 182.29 27.2617 182.518 27.2617C182.68 27.2617 182.837 27.252 182.986 27.2324C183.136 27.2129 183.257 27.1934 183.348 27.1738L183.357 28.9707C183.162 29.0293 182.934 29.0814 182.674 29.127C182.42 29.1725 182.127 29.1953 181.795 29.1953C181.255 29.1953 180.776 29.1009 180.359 28.9121C179.943 28.7168 179.617 28.401 179.383 27.9648C179.148 27.5286 179.031 26.9492 179.031 26.2266V15.8457ZM187.41 14V29H185.066V14H187.41ZM187 23.3262L186.238 23.3164C186.245 22.5872 186.346 21.9134 186.541 21.2949C186.743 20.6764 187.023 20.1393 187.381 19.6836C187.745 19.2214 188.182 18.8665 188.689 18.6191C189.197 18.3652 189.76 18.2383 190.379 18.2383C190.9 18.2383 191.368 18.3099 191.785 18.4531C192.208 18.5964 192.573 18.8275 192.879 19.1465C193.185 19.459 193.416 19.8691 193.572 20.377C193.735 20.8783 193.816 21.4902 193.816 22.2129V29H191.453V22.1934C191.453 21.6855 191.378 21.2819 191.229 20.9824C191.085 20.6829 190.874 20.4681 190.594 20.3379C190.314 20.2012 189.972 20.1328 189.568 20.1328C189.145 20.1328 188.771 20.2174 188.445 20.3867C188.126 20.556 187.859 20.7871 187.645 21.0801C187.43 21.373 187.267 21.7116 187.156 22.0957C187.052 22.4798 187 22.89 187 23.3262ZM212.332 21.7344V27.1641C212.13 27.431 211.814 27.724 211.385 28.043C210.962 28.3555 210.398 28.6257 209.695 28.8535C208.992 29.0814 208.117 29.1953 207.068 29.1953C206.176 29.1953 205.359 29.0456 204.617 28.7461C203.875 28.4401 203.234 27.9941 202.693 27.4082C202.16 26.8223 201.746 26.1094 201.453 25.2695C201.16 24.4232 201.014 23.4596 201.014 22.3789V21.3926C201.014 20.3184 201.147 19.3613 201.414 18.5215C201.688 17.6751 202.078 16.959 202.586 16.373C203.094 15.7871 203.706 15.3444 204.422 15.0449C205.145 14.7389 205.962 14.5859 206.873 14.5859C208.038 14.5859 209.002 14.7812 209.764 15.1719C210.532 15.556 211.124 16.0898 211.541 16.7734C211.958 17.457 212.221 18.2383 212.332 19.1172H209.93C209.852 18.6224 209.699 18.1797 209.471 17.7891C209.249 17.3984 208.93 17.0924 208.514 16.8711C208.104 16.6432 207.57 16.5293 206.912 16.5293C206.346 16.5293 205.848 16.6367 205.418 16.8516C204.988 17.0664 204.63 17.3822 204.344 17.7988C204.064 18.2155 203.852 18.7233 203.709 19.3223C203.566 19.9212 203.494 20.6048 203.494 21.373V22.3789C203.494 23.1602 203.576 23.8535 203.738 24.459C203.908 25.0645 204.148 25.5755 204.461 25.9922C204.78 26.4089 205.167 26.7246 205.623 26.9395C206.079 27.1478 206.593 27.252 207.166 27.252C207.726 27.252 208.185 27.2064 208.543 27.1152C208.901 27.0176 209.184 26.9036 209.393 26.7734C209.607 26.6367 209.773 26.5065 209.891 26.3828V23.5605H206.932V21.7344H212.332ZM214.363 23.834V23.6094C214.363 22.8477 214.474 22.1413 214.695 21.4902C214.917 20.8327 215.236 20.263 215.652 19.7812C216.076 19.293 216.59 18.9154 217.195 18.6484C217.807 18.375 218.497 18.2383 219.266 18.2383C220.04 18.2383 220.73 18.375 221.336 18.6484C221.948 18.9154 222.465 19.293 222.889 19.7812C223.312 20.263 223.634 20.8327 223.855 21.4902C224.077 22.1413 224.188 22.8477 224.188 23.6094V23.834C224.188 24.5957 224.077 25.3021 223.855 25.9531C223.634 26.6042 223.312 27.1738 222.889 27.6621C222.465 28.1439 221.951 28.5215 221.346 28.7949C220.74 29.0618 220.053 29.1953 219.285 29.1953C218.51 29.1953 217.817 29.0618 217.205 28.7949C216.6 28.5215 216.085 28.1439 215.662 27.6621C215.239 27.1738 214.917 26.6042 214.695 25.9531C214.474 25.3021 214.363 24.5957 214.363 23.834ZM216.717 23.6094V23.834C216.717 24.3092 216.766 24.7585 216.863 25.1816C216.961 25.6048 217.114 25.9759 217.322 26.2949C217.531 26.6139 217.798 26.8646 218.123 27.0469C218.449 27.2292 218.836 27.3203 219.285 27.3203C219.721 27.3203 220.099 27.2292 220.418 27.0469C220.743 26.8646 221.01 26.6139 221.219 26.2949C221.427 25.9759 221.58 25.6048 221.678 25.1816C221.782 24.7585 221.834 24.3092 221.834 23.834V23.6094C221.834 23.1406 221.782 22.6979 221.678 22.2812C221.58 21.8581 221.424 21.4837 221.209 21.1582C221.001 20.8327 220.734 20.5788 220.408 20.3965C220.089 20.2077 219.708 20.1133 219.266 20.1133C218.823 20.1133 218.439 20.2077 218.113 20.3965C217.794 20.5788 217.531 20.8327 217.322 21.1582C217.114 21.4837 216.961 21.8581 216.863 22.2812C216.766 22.6979 216.717 23.1406 216.717 23.6094ZM225.711 23.834V23.6094C225.711 22.8477 225.822 22.1413 226.043 21.4902C226.264 20.8327 226.583 20.263 227 19.7812C227.423 19.293 227.938 18.9154 228.543 18.6484C229.155 18.375 229.845 18.2383 230.613 18.2383C231.388 18.2383 232.078 18.375 232.684 18.6484C233.296 18.9154 233.813 19.293 234.236 19.7812C234.66 20.263 234.982 20.8327 235.203 21.4902C235.424 22.1413 235.535 22.8477 235.535 23.6094V23.834C235.535 24.5957 235.424 25.3021 235.203 25.9531C234.982 26.6042 234.66 27.1738 234.236 27.6621C233.813 28.1439 233.299 28.5215 232.693 28.7949C232.088 29.0618 231.401 29.1953 230.633 29.1953C229.858 29.1953 229.165 29.0618 228.553 28.7949C227.947 28.5215 227.433 28.1439 227.01 27.6621C226.587 27.1738 226.264 26.6042 226.043 25.9531C225.822 25.3021 225.711 24.5957 225.711 23.834ZM228.064 23.6094V23.834C228.064 24.3092 228.113 24.7585 228.211 25.1816C228.309 25.6048 228.462 25.9759 228.67 26.2949C228.878 26.6139 229.145 26.8646 229.471 27.0469C229.796 27.2292 230.184 27.3203 230.633 27.3203C231.069 27.3203 231.447 27.2292 231.766 27.0469C232.091 26.8646 232.358 26.6139 232.566 26.2949C232.775 25.9759 232.928 25.6048 233.025 25.1816C233.13 24.7585 233.182 24.3092 233.182 23.834V23.6094C233.182 23.1406 233.13 22.6979 233.025 22.2812C232.928 21.8581 232.771 21.4837 232.557 21.1582C232.348 20.8327 232.081 20.5788 231.756 20.3965C231.437 20.2077 231.056 20.1133 230.613 20.1133C230.171 20.1133 229.786 20.2077 229.461 20.3965C229.142 20.5788 228.878 20.8327 228.67 21.1582C228.462 21.4837 228.309 21.8581 228.211 22.2812C228.113 22.6979 228.064 23.1406 228.064 23.6094ZM244.275 18.4336H246.414V28.707C246.414 29.6576 246.212 30.4648 245.809 31.1289C245.405 31.793 244.842 32.2975 244.119 32.6426C243.396 32.9941 242.56 33.1699 241.609 33.1699C241.206 33.1699 240.757 33.1113 240.262 32.9941C239.773 32.877 239.298 32.6882 238.836 32.4277C238.38 32.1738 237.999 31.8385 237.693 31.4219L238.797 30.0352C239.174 30.4844 239.591 30.8132 240.047 31.0215C240.503 31.2298 240.981 31.334 241.482 31.334C242.023 31.334 242.482 31.2331 242.859 31.0312C243.243 30.8359 243.54 30.5462 243.748 30.1621C243.956 29.778 244.061 29.3092 244.061 28.7559V20.8262L244.275 18.4336ZM237.098 23.834V23.6289C237.098 22.8281 237.195 22.099 237.391 21.4414C237.586 20.7773 237.866 20.2077 238.23 19.7324C238.595 19.2507 239.038 18.8828 239.559 18.6289C240.079 18.3685 240.669 18.2383 241.326 18.2383C242.01 18.2383 242.592 18.362 243.074 18.6094C243.562 18.8568 243.969 19.2116 244.295 19.6738C244.62 20.1296 244.874 20.6764 245.057 21.3145C245.245 21.946 245.385 22.6491 245.477 23.4238V24.0781C245.392 24.8333 245.249 25.5234 245.047 26.1484C244.845 26.7734 244.578 27.3138 244.246 27.7695C243.914 28.2253 243.504 28.5768 243.016 28.8242C242.534 29.0716 241.964 29.1953 241.307 29.1953C240.662 29.1953 240.079 29.0618 239.559 28.7949C239.044 28.528 238.602 28.1536 238.23 27.6719C237.866 27.1901 237.586 26.6237 237.391 25.9727C237.195 25.3151 237.098 24.6022 237.098 23.834ZM239.451 23.6289V23.834C239.451 24.3158 239.497 24.765 239.588 25.1816C239.686 25.5983 239.832 25.9661 240.027 26.2852C240.229 26.5977 240.483 26.8451 240.789 27.0273C241.102 27.2031 241.469 27.291 241.893 27.291C242.446 27.291 242.898 27.1738 243.25 26.9395C243.608 26.7051 243.882 26.3893 244.07 25.9922C244.266 25.5885 244.402 25.1393 244.48 24.6445V22.877C244.441 22.4928 244.36 22.1348 244.236 21.8027C244.119 21.4707 243.96 21.181 243.758 20.9336C243.556 20.6797 243.302 20.4844 242.996 20.3477C242.69 20.2044 242.329 20.1328 241.912 20.1328C241.489 20.1328 241.121 20.224 240.809 20.4062C240.496 20.5885 240.239 20.8392 240.037 21.1582C239.842 21.4772 239.695 21.8483 239.598 22.2715C239.5 22.6947 239.451 23.1471 239.451 23.6289ZM251.375 14V29H249.012V14H251.375ZM258.611 29.1953C257.83 29.1953 257.124 29.0684 256.492 28.8145C255.867 28.554 255.333 28.1927 254.891 27.7305C254.454 27.2682 254.119 26.7246 253.885 26.0996C253.65 25.4746 253.533 24.8008 253.533 24.0781V23.6875C253.533 22.8607 253.654 22.112 253.895 21.4414C254.135 20.7708 254.471 20.1979 254.9 19.7227C255.33 19.2409 255.838 18.873 256.424 18.6191C257.01 18.3652 257.645 18.2383 258.328 18.2383C259.083 18.2383 259.744 18.3652 260.311 18.6191C260.877 18.873 261.346 19.2311 261.717 19.6934C262.094 20.1491 262.374 20.6927 262.557 21.3242C262.745 21.9557 262.84 22.6523 262.84 23.4141V24.4199H254.676V22.7305H260.516V22.5449C260.503 22.1217 260.418 21.7246 260.262 21.3535C260.112 20.9824 259.881 20.6829 259.568 20.4551C259.256 20.2272 258.839 20.1133 258.318 20.1133C257.928 20.1133 257.579 20.1979 257.273 20.3672C256.974 20.5299 256.723 20.7676 256.521 21.0801C256.32 21.3926 256.163 21.7702 256.053 22.2129C255.949 22.6491 255.896 23.1406 255.896 23.6875V24.0781C255.896 24.5404 255.958 24.9701 256.082 25.3672C256.212 25.7578 256.401 26.0996 256.648 26.3926C256.896 26.6855 257.195 26.9167 257.547 27.0859C257.898 27.2487 258.299 27.3301 258.748 27.3301C259.314 27.3301 259.819 27.2161 260.262 26.9883C260.704 26.7604 261.089 26.4382 261.414 26.0215L262.654 27.2227C262.426 27.5547 262.13 27.8737 261.766 28.1797C261.401 28.4792 260.955 28.7233 260.428 28.9121C259.907 29.1009 259.301 29.1953 258.611 29.1953Z" fill="black" fill-opacity="0.54"/>
<rect width="24" height="24" transform="translate(33 11)" fill="white"/>
<path fill-rule="evenodd" clip-rule="evenodd" d="M56.04 23.2614C56.04 22.4459 55.9668 21.6618 55.8309 20.9091H45V25.3575H51.1891C50.9225 26.795 50.1123 28.013 48.8943 28.8284V31.7139H52.6109C54.7855 29.7118 56.04 26.7637 56.04 23.2614Z" fill="#4285F4"/>
<path fill-rule="evenodd" clip-rule="evenodd" d="M45 34.4998C48.105 34.4998 50.7081 33.47 52.6109 31.7137L48.8943 28.8282C47.8645 29.5182 46.5472 29.9259 45 29.9259C42.0047 29.9259 39.4695 27.903 38.5652 25.1848H34.7231V28.1644C36.6154 31.9228 40.5045 34.4998 45 34.4998Z" fill="#34A853"/>
<path fill-rule="evenodd" clip-rule="evenodd" d="M38.5652 25.1851C38.3352 24.4951 38.2045 23.758 38.2045 23.0001C38.2045 22.2421 38.3352 21.5051 38.5652 20.8151V17.8355H34.7232C33.9443 19.388 33.5 21.1444 33.5 23.0001C33.5 24.8557 33.9443 26.6121 34.7232 28.1646L38.5652 25.1851Z" fill="#FBBC05"/>
<path fill-rule="evenodd" clip-rule="evenodd" d="M45 16.0739C46.6884 16.0739 48.2043 16.6541 49.3961 17.7936L52.6945 14.4952C50.7029 12.6395 48.0997 11.5 45 11.5C40.5045 11.5 36.6154 14.077 34.7231 17.8355L38.5652 20.815C39.4695 18.0968 42.0047 16.0739 45 16.0739Z" fill="#EA4335"/>
</g>
<defs>
<filter id="filter0_d_306_90" x="0" y="0" width="313.079" height="51" filterUnits="userSpaceOnUse" color-interpolation-filters="sRGB">
<feFlood flood-opacity="0" result="BackgroundImageFix"/>
<feColorMatrix in="SourceAlpha" type="matrix" values="0 0 0 0 0 0 0 0 0 0 0 0 0 0 0 0 0 0 127 0" result="hardAlpha"/>
<feOffset dy="4"/>
<feGaussianBlur stdDeviation="2"/>
<feComposite in2="hardAlpha" operator="out"/>
<feColorMatrix type="matrix" values="0 0 0 0 0 0 0 0 0 0 0 0 0 0 0 0 0 0 0.25 0"/>
<feBlend mode="normal" in2="BackgroundImageFix" result="effect1_dropShadow_306_90"/>
<feBlend mode="normal" in="SourceGraphic" in2="effect1_dropShadow_306_90" result="shape"/>
</filter>
</defs>
</svg>
